<svg width="33" height="33" viewBox="0 0 33 33" fill="none" xmlns="http://www.w3.org/2000/svg">
<path d="M14.7793 0.165109C15.2122 0.164978 15.6453 0.165483 16.0781 0.166085C16.5062 0.166679 16.9342 0.166953 17.3623 0.167062H17.8496C18.8081 0.167272 19.7671 0.168065 20.7256 0.169015C21.6562 0.169936 22.5869 0.170544 23.5176 0.170968H24.4707C25.0582 0.171222 25.6459 0.171645 26.2334 0.171945C26.2603 0.171958 26.2877 0.17193 26.3154 0.171945C28.1169 0.172865 29.9183 0.175138 31.7197 0.176827C31.7201 0.235421 31.7205 0.294014 31.7207 0.352609C31.7209 0.385332 31.7215 0.418506 31.7217 0.452218C31.7186 0.634425 31.6705 0.803117 31.623 0.977609C31.6124 1.01802 31.6008 1.05902 31.5898 1.10066C31.3843 1.80563 30.8861 2.43258 30.2598 2.78913C30.0107 2.92451 29.7535 3.04344 29.4795 3.11433C29.458 3.11988 29.4362 3.1252 29.4141 3.13093C29.1024 3.20032 28.7888 3.19024 28.4717 3.18952C28.4056 3.18962 28.3395 3.19035 28.2734 3.1905H27.1406C26.8011 3.1909 26.4616 3.19145 26.1221 3.19148C25.6305 3.19152 25.139 3.19182 24.6475 3.19245C24.4181 3.19275 24.1883 3.19316 23.959 3.19343C23.9361 3.19346 23.9132 3.1934 23.8896 3.19343C23.3436 3.19407 22.7971 3.19497 22.251 3.19538C22.2153 3.19541 22.2149 3.19535 22.1787 3.19538C21.6219 3.1958 21.0646 3.19607 20.5078 3.19636H19.8564C19.3118 3.19665 18.7663 3.19764 18.2217 3.19831C18.1989 3.19834 18.1758 3.19828 18.1523 3.19831C17.9235 3.19859 17.6947 3.19896 17.4658 3.19929H17.0605C16.7049 3.19975 16.3488 3.20033 15.9932 3.20026C15.6352 3.2002 15.2769 3.19963 14.9189 3.20026C14.7252 3.2006 14.5306 3.20151 14.3369 3.20124H13.6123C13.004 3.19925 12.421 3.28354 11.8291 3.42585C11.7861 3.43601 11.7431 3.44597 11.7002 3.45612C11.2548 3.56245 10.8102 3.67741 10.3838 3.8487C10.3541 3.86049 10.3245 3.8727 10.2939 3.88484C9.13434 4.34829 8.06679 4.96926 7.15137 5.84284C7.08064 5.91012 7.00866 5.9756 6.93555 6.04011C6.71357 6.23899 6.51753 6.45796 6.3252 6.68659C6.29874 6.71792 6.29836 6.71824 6.27148 6.75007C5.95284 7.13018 5.67542 7.53097 5.41504 7.95515C5.40015 7.9794 5.38546 8.00438 5.37012 8.02937C5.19202 8.32289 5.03549 8.62693 4.88379 8.93562C4.86754 8.96855 4.85072 9.00227 4.83398 9.0362C4.74409 9.22231 4.66806 9.40838 4.60156 9.60456C4.57292 9.68557 4.54087 9.76358 4.50586 9.84187C4.43103 10.0112 4.37249 10.185 4.31543 10.3614C4.29878 10.4127 4.2982 10.4127 4.28125 10.4649C4.1466 10.8891 4.03749 11.3238 3.9541 11.7618C3.98491 11.7379 4.01611 11.7132 4.04785 11.6885C4.32293 11.4799 4.60552 11.2963 4.90625 11.129C4.95355 11.1026 4.95354 11.1023 5.00195 11.0753C5.19291 10.9709 5.38623 10.8798 5.58691 10.7969C5.67338 10.7603 5.75765 10.7207 5.8418 10.6788C6.87019 10.1962 8.00601 10.0187 9.12598 10.0216C9.19656 10.0216 9.26731 10.0225 9.33789 10.0225C9.53164 10.0226 9.72618 10.0222 9.91992 10.0225C10.1289 10.0229 10.3379 10.0233 10.5469 10.0235C10.8857 10.0238 11.2246 10.024 11.5635 10.0245C12.1357 10.0253 12.708 10.0261 13.2803 10.0264H14.0166C14.5993 10.0268 15.182 10.0279 15.7646 10.0284C15.8028 10.0284 15.803 10.0284 15.8418 10.0284C16.4361 10.0289 17.0307 10.0296 17.625 10.0303C17.6632 10.0304 17.6635 10.0303 17.7021 10.0303C17.908 10.0306 18.1144 10.0311 18.3203 10.0313C19.1705 10.0324 20.0209 10.0329 20.8711 10.0333H21.3037C21.6833 10.0335 22.0628 10.0345 22.4424 10.0352C22.8245 10.0359 23.2067 10.0362 23.5889 10.0362C23.7956 10.0362 24.0023 10.0366 24.209 10.0372H24.9824C25.7513 10.0408 26.5197 9.95159 27.2295 9.63386C27.3357 9.59147 27.3361 9.5917 27.4453 9.57331C27.4876 9.56591 27.488 9.56525 27.5312 9.55769C27.5419 9.53578 27.5525 9.51385 27.5635 9.49128C27.6199 9.45948 27.6202 9.45943 27.6943 9.42585C27.7217 9.41312 27.7491 9.39991 27.7773 9.38679C27.8071 9.37299 27.8375 9.35901 27.8682 9.3448C28.5768 9.00657 29.1786 8.54273 29.7393 7.98835C29.755 7.97286 29.7709 7.95743 29.7871 7.94148C30.0056 7.72594 30.2021 7.49894 30.3887 7.25398C30.4143 7.22118 30.4404 7.18815 30.4668 7.15437C30.7423 6.79776 30.9834 6.41563 31.2002 6.01862C31.4883 5.43877 31.759 4.86992 31.7988 4.69148C31.9227 4.16161 32.0822 3.65968 32.1582 3.11433C32.164 3.07106 32.164 3.07064 32.1699 3.02644C32.1738 2.9997 32.1777 2.97293 32.1816 2.94538C32.185 2.9216 32.188 2.89762 32.1914 2.87312C32.2067 2.81387 32.2075 2.81388 32.2725 2.74714C32.2736 4.68429 32.2738 6.62151 32.2744 8.55866C32.2744 8.58729 32.2744 8.61609 32.2744 8.64558C32.2746 9.26889 32.2752 9.89238 32.2754 10.5157V11.5255C32.2757 12.5111 32.2767 13.4969 32.2773 14.4825C32.278 15.4955 32.2782 16.5085 32.2783 17.5216V18.0362C32.2784 18.4892 32.2789 18.9425 32.2793 19.3956C32.2797 19.8514 32.2794 20.3079 32.2793 20.7637C32.2792 21.0342 32.2799 21.3048 32.2803 21.5753V22.4278C32.2815 22.9537 32.2712 23.458 32.1367 23.9688C32.1019 24.1114 32.0758 24.2552 32.0488 24.3995C31.9653 24.8384 31.8747 25.2759 31.6963 25.6856C31.6332 25.8359 31.5833 25.9916 31.5322 26.1466C31.4949 26.2456 31.4503 26.3284 31.3955 26.418C31.3715 26.4737 31.3469 26.5298 31.3242 26.586C31.2934 26.6618 31.261 26.7375 31.2285 26.8126C31.2178 26.8374 31.2073 26.8622 31.1963 26.8878C31.177 26.9317 31.1567 26.9755 31.1357 27.0186C31.0342 27.1732 30.8771 27.4456 30.8105 27.5548C30.7822 27.6015 30.7828 27.6019 30.7539 27.6495C30.602 27.8969 30.4384 28.1277 30.2588 28.3546C30.2373 28.383 30.2155 28.4112 30.1934 28.4405C30.048 28.6323 29.8914 28.8124 29.7305 28.9903C29.6486 29.0808 29.5687 29.1729 29.4893 29.2657C29.3846 29.3855 29.276 29.4941 29.1562 29.5977C29.0832 29.6616 29.0136 29.7287 28.9434 29.796C28.4132 30.286 27.8007 30.6795 27.1738 31.0245C27.1537 31.0357 27.1331 31.0471 27.1123 31.0587C26.7501 31.2584 26.3724 31.4112 25.9883 31.5606C25.9231 31.5864 25.8583 31.6137 25.7939 31.6417C25.28 31.8641 24.713 31.9583 24.166 32.0538C24.1269 32.0607 24.0872 32.0672 24.0469 32.0743C23.6105 32.1472 23.1749 32.1652 22.7334 32.1641H21.8164C21.5828 32.1641 21.3489 32.1633 21.1152 32.1632C20.7775 32.1629 20.4393 32.1632 20.1016 32.1632C19.5535 32.1631 19.0051 32.1625 18.457 32.1622H16.7607C16.5012 32.1621 16.241 32.1613 15.9814 32.1612C14.711 32.1609 13.4403 32.1608 12.1699 32.1602V23.046C11.4085 23.0904 11.4083 23.0902 10.6523 23.1729C10.591 23.1814 10.5906 23.1819 10.5283 23.1905C8.66466 23.4561 6.77022 24.0313 5.31836 25.3165C5.29399 25.3379 5.26924 25.3589 5.24414 25.3809C4.85613 25.7311 4.49514 26.1046 4.1875 26.5313C4.15208 26.5804 4.11523 26.6293 4.0791 26.6778C3.83832 27.0071 3.63799 27.3626 3.45508 27.7286C3.44468 27.749 3.43357 27.7691 3.42285 27.7901C3.23847 28.1691 3.22554 28.5365 3.22363 28.9512C3.2215 29.4107 3.19543 29.8344 3.00391 30.2589C2.99404 30.2812 2.98477 30.3042 2.97461 30.3272C2.63227 31.0885 2.09785 31.6673 1.3252 31.9698C1.03798 32.0767 0.746774 32.163 0.439453 32.1612C0.410449 32.1611 0.381444 32.1604 0.351562 32.1602C0.32943 32.1601 0.306983 32.1604 0.28418 32.1602C0.283622 30.6678 0.283503 29.1751 0.283203 27.6827V26.1641C0.283163 25.9269 0.28227 25.6895 0.282227 25.4522V23.1016C0.281917 22.3183 0.281315 21.5344 0.28125 20.751V16.4415C0.283116 15.8842 0.287593 15.5596 0.295898 14.9112C0.296759 14.8419 0.297109 14.7725 0.297852 14.7032C0.311351 13.5234 0.312263 13.5224 0.447266 12.9962C0.516097 12.6257 0.559531 12.255 0.673828 11.8946C0.715804 11.7575 0.745243 11.6253 0.765625 11.4835C0.803631 11.2454 0.865715 11.0165 0.931641 10.7852C0.942901 10.7448 0.95422 10.7039 0.96582 10.6622C1.01709 10.4799 1.0704 10.2998 1.1377 10.1231C1.16577 10.0481 1.19058 9.97169 1.21582 9.89558C1.22514 9.86762 1.23454 9.83942 1.24414 9.81062C1.26316 9.75337 1.28198 9.69606 1.30078 9.63874C1.35406 9.47967 1.41473 9.33 1.49023 9.18073C1.52412 9.11271 1.55112 9.04331 1.57715 8.97175C1.97074 7.94544 2.53527 6.96905 3.1748 6.08601C3.18842 6.06718 3.2018 6.04779 3.21582 6.02839C3.30832 5.9012 3.40308 5.7759 3.49902 5.65144C3.51478 5.63084 3.53064 5.61015 3.54688 5.58894C3.79276 5.26857 4.05271 4.96662 4.32617 4.67097C4.39434 4.59646 4.46049 4.52008 4.52637 4.44343C4.75039 4.1861 4.98806 3.93766 5.24414 3.71394C5.30436 3.66122 5.36369 3.60774 5.42285 3.55378C7.54091 1.62966 10.379 0.152385 13.248 0.164132H14.0078C14.265 0.164741 14.5221 0.165196 14.7793 0.165109ZM9.54395 12.9932C9.09364 12.9925 8.63862 12.9767 8.19629 13.0772C8.15343 13.0871 8.15317 13.0871 8.11133 13.0967C7.71175 13.1764 7.33575 13.2909 6.95996 13.4522C6.87484 13.4899 6.78994 13.5273 6.70312 13.5606C6.6151 13.593 6.5305 13.625 6.44922 13.6729C6.418 13.6928 6.38772 13.7122 6.35742 13.7315C5.43566 14.3115 4.26698 15.1551 3.85254 16.2735C3.72267 16.6239 3.56721 16.9709 3.45996 17.3497C3.44847 17.3915 3.43791 17.4322 3.42676 17.4727C3.2225 18.1922 3.19311 18.9161 3.19727 19.6612C3.19799 19.7851 3.19812 19.9094 3.19824 20.0333C3.19846 20.2679 3.19922 20.5027 3.2002 20.7374C3.20132 21.0061 3.20165 21.2753 3.20215 21.544C3.2032 22.1225 3.20474 22.7009 3.20703 23.2794C3.27194 23.2794 3.27178 23.2795 3.3418 23.2091C4.25247 22.2359 5.63174 21.4912 6.8623 21.0714C6.92127 21.0514 6.98035 21.0305 7.03906 21.0098C7.14207 20.9643 7.24225 20.9172 7.34961 20.8839C7.47533 20.852 7.59935 20.8183 7.72168 20.7745C8.33927 20.548 8.98203 20.4151 9.62695 20.3018C9.69464 20.2901 9.7624 20.2784 9.83008 20.2667C10.9614 20.0648 12.0934 20.0261 13.2393 20.0255C13.4208 20.0254 13.6026 20.0252 13.7842 20.0245C14.1288 20.0231 14.4737 20.0222 14.8184 20.0216C15.4414 20.0204 16.0645 20.0187 16.6875 20.0167C16.9066 20.0159 17.1256 20.0151 17.3447 20.0147C17.4824 20.0145 17.6202 20.0141 17.7578 20.0137C17.8221 20.0136 17.8869 20.0139 17.9512 20.0137C18.3636 20.0135 18.7784 20.0191 19.1875 19.9561C19.2242 19.9492 19.2603 19.9423 19.2959 19.9356C19.3584 19.9238 19.421 19.9118 19.4834 19.8995C19.5053 19.8951 19.5266 19.891 19.5479 19.8868C20.0614 19.7866 20.6196 19.7035 21.0986 19.4854C21.1872 19.4451 21.2589 19.4323 21.3564 19.3946C21.4862 19.3322 21.55 19.2993 21.6826 19.2501C22.8157 18.7196 24.1701 17.804 24.6797 16.5753C24.7376 16.4124 24.8479 16.2735 24.9453 16.0899C24.994 16.0065 25.0273 15.9218 25.0625 15.835C25.1498 15.6881 25.2038 15.5708 25.2432 15.4024C25.2638 15.3098 25.2839 15.2187 25.3145 15.129C25.5146 14.6182 25.588 14.05 25.5859 13.502C25.5854 13.4459 25.5855 13.4457 25.585 13.3907C25.5843 13.2595 25.5833 13.1283 25.582 12.9971C24.0173 12.9966 22.4524 12.9955 20.8877 12.9952H18.46C17.6517 12.995 16.8434 12.9945 16.0352 12.9942H13.1152C12.7435 12.9942 12.3717 12.9934 12 12.9932H9.54395Z" fill="#2B7FFF"/>
</svg>
