<svg width="40" height="41" viewBox="0 0 40 41" fill="none" xmlns="http://www.w3.org/2000/svg">
<path d="M35.6601 33.0613L31.268 33.3751L30.4314 37.6627L26.2484 36.46L24 40.2248L20.4444 37.6104L17.0458 40.3816L14.5882 36.7215L10.4575 38.1855L9.41177 33.898L5.01961 33.8457L5.4902 29.5058L1.35948 27.9372L3.29412 23.9633L0 21.0875L3.18954 18.0548L1.04575 14.2378L5.01961 12.46L4.33987 8.12009L8.73203 7.85865L9.56863 3.51877L13.7516 4.77368L16 0.956677L19.5556 3.57106L22.9543 0.799805L25.4118 4.45995L29.5425 2.9959L30.5882 7.2835L34.9804 7.33577L34.5098 11.728L38.6405 13.2966L36.7059 17.2182L40 20.094L36.8627 23.1267L38.9543 26.9437L34.9804 28.7215L35.6601 33.0613Z" fill="url(#paint0_linear_8006_1188)"/>
<path d="M20.0259 35.4142C28.1983 35.4142 34.8233 28.7892 34.8233 20.6168C34.8233 12.4444 28.1983 5.81934 20.0259 5.81934C11.8535 5.81934 5.22852 12.4444 5.22852 20.6168C5.22852 28.7892 11.8535 35.4142 20.0259 35.4142Z" fill="url(#paint1_radial_8006_1188)"/>
<path d="M22.2743 19.0482C18.5096 15.9632 17.0455 11.3096 18.9801 8.64295C20.9148 5.97627 25.5684 6.23772 29.3854 9.3227C33.1501 12.4077 34.6141 17.0613 32.6795 19.728C30.6926 22.4469 26.039 22.1332 22.2743 19.0482Z" fill="url(#paint2_radial_8006_1188)"/>
<path opacity="0.4" d="M6.90195 23.8589C7.42482 22.238 9.93463 22.9177 12.6013 25.3752C15.2157 27.8328 16.9935 31.1792 16.4706 32.8524C15.9477 34.4733 13.4379 33.7936 10.7712 31.336C8.15685 28.8262 6.37907 25.5321 6.90195 23.8589Z" fill="url(#paint3_radial_8006_1188)"/>
<defs>
<linearGradient id="paint0_linear_8006_1188" x1="38.2465" y1="0.207748" x2="3.07873" y2="39.5066" gradientUnits="userSpaceOnUse">
<stop stop-color="#FFBA24"/>
<stop offset="1" stop-color="#FF5500"/>
</linearGradient>
<radialGradient id="paint1_radial_8006_1188" cx="0" cy="0" r="1" gradientUnits="userSpaceOnUse" gradientTransform="translate(23.3917 11.3029) rotate(180) scale(28.1343 28.1344)">
<stop stop-color="#FFF4C3"/>
<stop offset="0.1559" stop-color="#FFE036"/>
<stop offset="1" stop-color="#FA761C"/>
</radialGradient>
<radialGradient id="paint2_radial_8006_1188" cx="0" cy="0" r="1" gradientUnits="userSpaceOnUse" gradientTransform="translate(25.8041 14.1977) rotate(126.034) scale(6.02465 8.78881)">
<stop stop-color="white"/>
<stop offset="1" stop-color="white" stop-opacity="0"/>
</radialGradient>
<radialGradient id="paint3_radial_8006_1188" cx="0" cy="0" r="1" gradientUnits="userSpaceOnUse" gradientTransform="translate(11.6787 28.356) rotate(-136.789) scale(6.55126 2.78258)">
<stop stop-color="white"/>
<stop offset="1" stop-color="white" stop-opacity="0"/>
</radialGradient>
</defs>
</svg>
