<svg width="41" height="42" viewBox="0 0 41 42" fill="none" xmlns="http://www.w3.org/2000/svg">
<path d="M23.3578 31.0188H22.9669H21.4469L24.5739 24.9385C24.7042 24.6779 24.8345 24.3739 24.8779 24.0698C25.2688 22.2023 24.0962 20.3348 22.1852 19.9439C20.3177 19.553 18.4501 20.7256 18.0592 22.6366L15.9746 32.4086L15.9311 32.7126C15.8877 32.8429 15.8877 33.0167 15.8877 33.147C15.8877 34.3196 16.8432 35.2751 18.0158 35.2751H20.3177L19.0582 40.4868C19.0147 40.6606 19.1016 40.8777 19.2319 41.008C19.449 41.1817 19.7531 41.1383 19.9268 40.9211L24.8779 34.059C25.0951 33.755 25.2254 33.3641 25.2254 32.9298C25.2254 31.844 24.4002 31.0188 23.3578 31.0188Z" fill="url(#paint0_linear_8006_1138)"/>
<path d="M32.2608 11.3011C31.8265 5.22076 26.7451 0.399902 20.5779 0.399902C14.3672 0.399902 9.28583 5.22076 8.89495 11.3011C4.29126 11.5183 0.599609 15.3402 0.599609 20.0308C0.599609 24.8516 4.50842 28.7605 9.32926 28.7605H31.87C36.6908 28.7605 40.5996 24.8516 40.5996 20.0308C40.5562 15.3402 36.8645 11.5183 32.2608 11.3011Z" fill="url(#paint1_radial_8006_1138)"/>
<path opacity="0.6" d="M21.3593 12.3868C18.0586 9.73754 16.7991 5.65501 18.4929 3.30973C20.1867 0.964448 24.2692 1.22504 27.5265 3.87434C30.8273 6.52364 32.0868 10.6062 30.393 12.9514C28.6992 15.2967 24.6601 15.0361 21.3593 12.3868Z" fill="url(#paint2_radial_8006_1138)"/>
<path opacity="0.4" d="M32.3041 20.2481C29.6982 18.1634 28.6994 14.9495 30.0457 13.1254C31.3921 11.3012 34.5625 11.475 37.1684 13.6031C39.7743 15.6878 40.7732 18.9017 39.4268 20.7258C38.0804 22.5499 34.91 22.3762 32.3041 20.2481Z" fill="url(#paint3_radial_8006_1138)"/>
<path opacity="0.2" d="M6.81066 20.552C4.89969 17.5552 2.6847 16.122 1.85951 17.3381C1.03432 18.5541 1.90294 21.9418 3.81391 24.8951C5.72487 27.8918 7.93987 29.3251 8.76506 28.109C9.59025 26.9364 8.72163 23.5487 6.81066 20.552Z" fill="url(#paint4_radial_8006_1138)"/>
<path d="M10.5017 34.4498C10.024 35.3184 8.93818 35.579 8.06956 35.1013C7.20094 34.6235 6.94036 33.5378 7.4181 32.6691C7.89584 31.8005 10.9794 30.1067 10.9794 30.1067C10.9794 30.1067 10.9795 33.5812 10.5017 34.4498Z" fill="url(#paint5_radial_8006_1138)"/>
<path d="M7.46233 34.1458C7.20174 33.4075 7.33202 32.6692 7.85319 32.452C8.33093 32.2348 8.93897 32.6692 9.24299 33.3641C9.50358 34.1024 9.32984 34.8407 8.8521 35.0579C8.37436 35.275 7.72291 34.8841 7.46233 34.1458Z" fill="url(#paint6_radial_8006_1138)"/>
<path d="M13.3679 39.6617C12.8902 40.5303 11.8044 40.7909 10.9358 40.3132C10.0672 39.8354 9.80657 38.7497 10.2843 37.881C10.7621 37.0124 13.8456 35.3186 13.8456 35.3186C13.8456 35.3186 13.8891 38.7931 13.3679 39.6617Z" fill="url(#paint7_radial_8006_1138)"/>
<path d="M10.3285 39.3577C10.0679 38.6194 10.1983 37.8811 10.7194 37.6639C11.1972 37.4468 11.8052 37.8811 12.1092 38.576C12.3698 39.3143 12.1961 40.0526 11.7183 40.2698C11.2406 40.4869 10.6325 40.0961 10.3285 39.3577Z" fill="url(#paint8_radial_8006_1138)"/>
<path d="M33.5203 34.4498C33.0425 35.3184 31.9567 35.579 31.0881 35.1013C30.2195 34.6235 29.9589 33.5378 30.4367 32.6691C30.9144 31.8005 33.998 30.1067 33.998 30.1067C33.998 30.1067 34.0414 33.5812 33.5203 34.4498Z" fill="url(#paint9_radial_8006_1138)"/>
<path d="M30.4799 34.1458C30.2193 33.4075 30.3496 32.6692 30.8708 32.452C31.3485 32.2348 31.9566 32.6692 32.2606 33.3641C32.5212 34.1024 32.3474 34.8407 31.8697 35.0579C31.3919 35.275 30.7839 34.8841 30.4799 34.1458Z" fill="url(#paint10_radial_8006_1138)"/>
<path d="M28.5691 39.6617C28.0913 40.5303 27.0056 40.7909 26.1369 40.3132C25.2683 39.8354 25.0077 38.7497 25.4855 37.881C25.9632 37.0124 29.0468 35.3186 29.0468 35.3186C29.0468 35.3186 29.0902 38.7931 28.5691 39.6617Z" fill="url(#paint11_radial_8006_1138)"/>
<path d="M25.5287 39.3577C25.2681 38.6194 25.3984 37.8811 25.9196 37.6639C26.3974 37.4468 27.0054 37.8811 27.3094 38.576C27.57 39.3143 27.3963 40.0526 26.9185 40.2698C26.4408 40.4869 25.8327 40.0961 25.5287 39.3577Z" fill="url(#paint12_radial_8006_1138)"/>
<defs>
<linearGradient id="paint0_linear_8006_1138" x1="17.5687" y1="40.7349" x2="22.5738" y2="24.974" gradientUnits="userSpaceOnUse">
<stop offset="0.1559" stop-color="#FFE036"/>
<stop offset="1" stop-color="#FA761C"/>
</linearGradient>
<radialGradient id="paint1_radial_8006_1138" cx="0" cy="0" r="1" gradientUnits="userSpaceOnUse" gradientTransform="translate(25.598 6.34362) rotate(180) scale(30.513 22.2898)">
<stop stop-color="#B6CCD2"/>
<stop offset="0.198" stop-color="#97B6BE"/>
<stop offset="1" stop-color="#5D87B4"/>
</radialGradient>
<radialGradient id="paint2_radial_8006_1138" cx="0" cy="0" r="1" gradientUnits="userSpaceOnUse" gradientTransform="translate(24.4644 8.12207) rotate(126.034) scale(5.25158 7.66105)">
<stop stop-color="white"/>
<stop offset="1" stop-color="white" stop-opacity="0"/>
</radialGradient>
<radialGradient id="paint3_radial_8006_1138" cx="0" cy="0" r="1" gradientUnits="userSpaceOnUse" gradientTransform="translate(34.7436 16.9209) rotate(126.034) scale(4.12706 6.02059)">
<stop stop-color="white"/>
<stop offset="1" stop-color="white" stop-opacity="0"/>
</radialGradient>
<radialGradient id="paint4_radial_8006_1138" cx="0" cy="0" r="1" gradientUnits="userSpaceOnUse" gradientTransform="translate(5.29903 22.7336) rotate(-25.7092) scale(2.11547 6.15831)">
<stop stop-color="white"/>
<stop offset="1" stop-color="white" stop-opacity="0"/>
</radialGradient>
<radialGradient id="paint5_radial_8006_1138" cx="0" cy="0" r="1" gradientUnits="userSpaceOnUse" gradientTransform="translate(8.11687 34.0295) rotate(30.0008) scale(4.29581 4.29581)">
<stop stop-color="#D0F2FF"/>
<stop offset="0.198" stop-color="#D5F3FF"/>
<stop offset="1" stop-color="#85BCF1"/>
</radialGradient>
<radialGradient id="paint6_radial_8006_1138" cx="0" cy="0" r="1" gradientUnits="userSpaceOnUse" gradientTransform="translate(8.34474 33.7496) rotate(156.037) scale(0.959773 1.40009)">
<stop stop-color="white"/>
<stop offset="1" stop-color="white" stop-opacity="0"/>
</radialGradient>
<radialGradient id="paint7_radial_8006_1138" cx="0" cy="0" r="1" gradientUnits="userSpaceOnUse" gradientTransform="translate(10.9953 39.2611) rotate(30.0009) scale(4.29622 4.29624)">
<stop stop-color="#D0F2FF"/>
<stop offset="0.198" stop-color="#D5F3FF"/>
<stop offset="1" stop-color="#85BCF1"/>
</radialGradient>
<radialGradient id="paint8_radial_8006_1138" cx="0" cy="0" r="1" gradientUnits="userSpaceOnUse" gradientTransform="translate(11.2231 38.9812) rotate(156.037) scale(0.959835 1.40018)">
<stop stop-color="white"/>
<stop offset="1" stop-color="white" stop-opacity="0"/>
</radialGradient>
<radialGradient id="paint9_radial_8006_1138" cx="0" cy="0" r="1" gradientUnits="userSpaceOnUse" gradientTransform="translate(31.1454 34.0296) rotate(30.0008) scale(4.29546 4.29546)">
<stop stop-color="#D0F2FF"/>
<stop offset="0.198" stop-color="#D5F3FF"/>
<stop offset="1" stop-color="#85BCF1"/>
</radialGradient>
<radialGradient id="paint10_radial_8006_1138" cx="0" cy="0" r="1" gradientUnits="userSpaceOnUse" gradientTransform="translate(31.372 33.7496) rotate(156.037) scale(0.959773 1.40009)">
<stop stop-color="white"/>
<stop offset="1" stop-color="white" stop-opacity="0"/>
</radialGradient>
<radialGradient id="paint11_radial_8006_1138" cx="0" cy="0" r="1" gradientUnits="userSpaceOnUse" gradientTransform="translate(26.1865 39.2611) rotate(30.0009) scale(4.29579 4.2958)">
<stop stop-color="#D0F2FF"/>
<stop offset="0.198" stop-color="#D5F3FF"/>
<stop offset="1" stop-color="#85BCF1"/>
</radialGradient>
<radialGradient id="paint12_radial_8006_1138" cx="0" cy="0" r="1" gradientUnits="userSpaceOnUse" gradientTransform="translate(26.4133 38.9811) rotate(156.037) scale(0.959897 1.40027)">
<stop stop-color="white"/>
<stop offset="1" stop-color="white" stop-opacity="0"/>
</radialGradient>
</defs>
</svg>
