<svg width="40" height="36" viewBox="0 0 40 36" fill="none" xmlns="http://www.w3.org/2000/svg">
<path d="M37.3784 20.1882L34.7192 20.3754L34.1949 22.9972L31.6481 22.2481L30.2623 24.5328L28.1275 22.9597L26.0675 24.6451L24.5694 22.4354L22.0601 23.2968L21.4234 20.7125L18.7642 20.6751L19.0638 18.0159L16.5544 17.0796L17.7529 14.6825L15.7305 12.9597L17.6406 11.087L16.3297 8.76492L18.8016 7.67877L18.3522 5.05704L21.0114 4.90723L21.5357 2.2855L24.0825 2.99711L25.4683 0.712459L27.6031 2.2855L29.6631 0.600098L31.1612 2.8473L33.6705 1.94842L34.3072 4.53269L36.9664 4.57015L36.6668 7.22933L39.1762 8.20312L37.9777 10.5627L40.0001 12.323L38.09 14.1582L39.4009 16.4803L36.929 17.5664L37.3784 20.1882Z" fill="url(#paint0_linear_8006_1055)"/>
<path d="M27.8647 21.6114C32.8291 21.6114 36.8535 17.587 36.8535 12.6226C36.8535 7.65821 32.8291 3.63379 27.8647 3.63379C22.9004 3.63379 18.876 7.65821 18.876 12.6226C18.876 17.587 22.9004 21.6114 27.8647 21.6114Z" fill="url(#paint1_radial_8006_1055)"/>
<path d="M29.251 11.7239C26.9663 9.85123 26.0675 7.04224 27.266 5.39429C28.4645 3.74635 31.2734 3.93362 33.5581 5.80628C35.8427 7.67895 36.7416 10.4879 35.5431 12.1359C34.3446 13.7464 31.5356 13.5591 29.251 11.7239Z" fill="url(#paint2_radial_8006_1055)"/>
<path opacity="0.4" d="M19.9251 14.6078C20.2247 13.5966 21.7603 14.0086 23.3708 15.5442C24.9813 17.0423 26.03 19.0648 25.7303 20.076C25.4307 21.0872 23.8951 20.6753 22.2846 19.1397C20.6742 17.6415 19.6255 15.6191 19.9251 14.6078Z" fill="url(#paint3_radial_8006_1055)"/>
<path d="M27.3408 15.3568C26.9663 10.1134 22.6217 5.95605 17.2659 5.95605C11.9101 5.95605 7.52809 10.1134 7.19101 15.3568C3.18352 15.5441 0 18.84 0 22.8849C0 27.0423 3.37079 30.4131 7.52809 30.4131H26.9663C31.1236 30.4131 34.4944 27.0423 34.4944 22.8849C34.4944 18.84 31.3109 15.5441 27.3408 15.3568Z" fill="url(#paint4_radial_8006_1055)"/>
<path d="M27.3408 15.3568C26.9663 10.1134 22.6217 5.95605 17.2659 5.95605C11.9101 5.95605 7.52809 10.1134 7.19101 15.3568C3.18352 15.5441 0 18.84 0 22.8849C0 27.0423 3.37079 30.4131 7.52809 30.4131H26.9663C31.1236 30.4131 34.4944 27.0423 34.4944 22.8849C34.4944 18.84 31.3109 15.5441 27.3408 15.3568Z" fill="url(#paint5_radial_8006_1055)"/>
<path d="M17.2656 16.2935C14.4192 14.0088 13.333 10.4882 14.7937 8.46574C16.2544 6.44327 19.775 6.66799 22.584 8.95264C25.4304 11.2373 26.5166 14.7579 25.0559 16.7804C23.5952 18.8403 20.0746 18.6156 17.2656 16.2935Z" fill="url(#paint6_radial_8006_1055)"/>
<path opacity="0.4" d="M27.3787 23.1098C25.1315 21.3121 24.2701 18.5405 25.4311 16.9675C26.5922 15.3945 29.3262 15.5443 31.5734 17.3795C33.8206 19.1772 34.6821 21.9488 33.521 23.5218C32.36 25.0949 29.6259 24.9076 27.3787 23.1098Z" fill="url(#paint7_radial_8006_1055)"/>
<path opacity="0.2" d="M5.39292 23.3347C3.74498 20.7504 1.83486 19.5145 1.12325 20.5632C0.411644 21.6119 1.16071 24.5332 2.80865 27.08C4.45659 29.6643 6.3667 30.9003 7.07831 29.8516C7.78992 28.8403 7.04086 25.919 5.39292 23.3347Z" fill="url(#paint8_radial_8006_1055)"/>
<path d="M8.83867 35.0573C8.42669 35.8064 7.49036 36.0311 6.7413 35.6191C5.99223 35.2072 5.76751 34.2708 6.1795 33.5218C6.59148 32.7727 9.25066 31.312 9.25066 31.312C9.25066 31.312 9.25066 34.3083 8.83867 35.0573Z" fill="url(#paint9_radial_8006_1055)"/>
<path d="M6.21783 34.7953C5.99311 34.1586 6.10547 33.5219 6.55491 33.3346C6.96689 33.1474 7.49124 33.5219 7.75341 34.1212C7.97813 34.7579 7.82831 35.3946 7.41633 35.5818C6.96689 35.7691 6.44255 35.432 6.21783 34.7953Z" fill="url(#paint10_radial_8006_1055)"/>
<path d="M15.2811 35.0573C14.8691 35.8064 13.9327 36.0311 13.1837 35.6191C12.4346 35.2072 12.2099 34.2708 12.6219 33.5218C13.0339 32.7727 15.693 31.312 15.693 31.312C15.693 31.312 15.693 34.3083 15.2811 35.0573Z" fill="url(#paint11_radial_8006_1055)"/>
<path d="M12.6592 34.7953C12.4345 34.1586 12.5469 33.5219 12.9963 33.3346C13.4083 33.1474 13.9326 33.5219 14.1948 34.1212C14.4195 34.7579 14.2697 35.3946 13.8577 35.5818C13.4083 35.7691 12.884 35.432 12.6592 34.7953Z" fill="url(#paint12_radial_8006_1055)"/>
<path d="M21.7225 35.0573C21.3105 35.8064 20.3741 36.0311 19.6251 35.6191C18.876 35.2072 18.6513 34.2708 19.0633 33.5218C19.4753 32.7727 22.1344 31.312 22.1344 31.312C22.1344 31.312 22.1344 34.3083 21.7225 35.0573Z" fill="url(#paint13_radial_8006_1055)"/>
<path d="M19.1016 34.7953C18.8769 34.1586 18.9893 33.5219 19.4387 33.3346C19.8507 33.1474 20.375 33.5219 20.6372 34.1212C20.8619 34.7579 20.7121 35.3946 20.3001 35.5818C19.8507 35.7691 19.3263 35.432 19.1016 34.7953Z" fill="url(#paint14_radial_8006_1055)"/>
<path d="M28.1648 35.0573C27.7529 35.8064 26.8165 36.0311 26.0675 35.6191C25.3184 35.2072 25.0937 34.2708 25.5057 33.5218C25.9177 32.7727 28.5768 31.312 28.5768 31.312C28.5768 31.312 28.5768 34.3083 28.1648 35.0573Z" fill="url(#paint15_radial_8006_1055)"/>
<path d="M25.543 34.7953C25.3183 34.1586 25.4307 33.5219 25.8801 33.3346C26.2921 33.1474 26.8164 33.5219 27.0786 34.1212C27.3033 34.7579 27.1535 35.3946 26.7415 35.5818C26.2921 35.7691 25.7677 35.432 25.543 34.7953Z" fill="url(#paint16_radial_8006_1055)"/>
<defs>
<linearGradient id="paint0_linear_8006_1055" x1="38.9396" y1="0.257774" x2="17.5918" y2="24.1133" gradientUnits="userSpaceOnUse">
<stop stop-color="#FFBA24"/>
<stop offset="1" stop-color="#FF5500"/>
</linearGradient>
<radialGradient id="paint1_radial_8006_1055" cx="0" cy="0" r="1" gradientUnits="userSpaceOnUse" gradientTransform="translate(29.922 6.99282) rotate(180) scale(17.0784 17.0785)">
<stop stop-color="#FFF4C3"/>
<stop offset="0.1559" stop-color="#FFE036"/>
<stop offset="1" stop-color="#FA761C"/>
</radialGradient>
<radialGradient id="paint2_radial_8006_1055" cx="0" cy="0" r="1" gradientUnits="userSpaceOnUse" gradientTransform="translate(31.387 8.75058) rotate(126.034) scale(3.657 5.33487)">
<stop stop-color="white"/>
<stop offset="1" stop-color="white" stop-opacity="0"/>
</radialGradient>
<radialGradient id="paint3_radial_8006_1055" cx="0" cy="0" r="1" gradientUnits="userSpaceOnUse" gradientTransform="translate(22.8121 17.3448) rotate(-136.789) scale(3.97677 1.68909)">
<stop stop-color="white"/>
<stop offset="1" stop-color="white" stop-opacity="0"/>
</radialGradient>
<radialGradient id="paint4_radial_8006_1055" cx="0" cy="0" r="1" gradientUnits="userSpaceOnUse" gradientTransform="translate(21.599 11.0989) rotate(180) scale(26.3136 19.2221)">
<stop stop-color="white"/>
<stop offset="0.198" stop-color="#D5F3FF"/>
<stop offset="1" stop-color="#85BCF1"/>
</radialGradient>
<radialGradient id="paint5_radial_8006_1055" cx="0" cy="0" r="1" gradientUnits="userSpaceOnUse" gradientTransform="translate(24.9872 12.596) scale(23.1099 23.11)">
<stop stop-color="#FFE036"/>
<stop offset="0.00517127" stop-color="#FFDF36" stop-opacity="0.9933"/>
<stop offset="0.1623" stop-color="#FDB92C" stop-opacity="0.789"/>
<stop offset="0.319" stop-color="#FC9C25" stop-opacity="0.5851"/>
<stop offset="0.4735" stop-color="#FB8720" stop-opacity="0.3841"/>
<stop offset="0.6247" stop-color="#FA7A1D" stop-opacity="0.1875"/>
<stop offset="0.7688" stop-color="#FA761C" stop-opacity="0"/>
</radialGradient>
<radialGradient id="paint6_radial_8006_1055" cx="0" cy="0" r="1" gradientUnits="userSpaceOnUse" gradientTransform="translate(19.9133 12.6336) rotate(126.034) scale(4.52886 6.60674)">
<stop stop-color="white"/>
<stop offset="1" stop-color="white" stop-opacity="0"/>
</radialGradient>
<radialGradient id="paint7_radial_8006_1055" cx="0" cy="0" r="1" gradientUnits="userSpaceOnUse" gradientTransform="translate(29.4864 20.2208) rotate(126.034) scale(3.55917 5.19215)">
<stop stop-color="white"/>
<stop offset="1" stop-color="white" stop-opacity="0"/>
</radialGradient>
<radialGradient id="paint8_radial_8006_1055" cx="0" cy="0" r="1" gradientUnits="userSpaceOnUse" gradientTransform="translate(4.09865 25.2367) rotate(-25.7093) scale(1.82433 5.31079)">
<stop stop-color="white"/>
<stop offset="1" stop-color="white" stop-opacity="0"/>
</radialGradient>
<radialGradient id="paint9_radial_8006_1055" cx="0" cy="0" r="1" gradientUnits="userSpaceOnUse" gradientTransform="translate(6.77103 34.7035) rotate(30.0008) scale(3.70438 3.70438)">
<stop stop-color="#D0F2FF"/>
<stop offset="0.198" stop-color="#D5F3FF"/>
<stop offset="1" stop-color="#85BCF1"/>
</radialGradient>
<radialGradient id="paint10_radial_8006_1055" cx="0" cy="0" r="1" gradientUnits="userSpaceOnUse" gradientTransform="translate(6.96748 34.4625) rotate(156.037) scale(0.827833 1.20761)">
<stop stop-color="white"/>
<stop offset="1" stop-color="white" stop-opacity="0"/>
</radialGradient>
<radialGradient id="paint11_radial_8006_1055" cx="0" cy="0" r="1" gradientUnits="userSpaceOnUse" gradientTransform="translate(13.2107 34.7034) rotate(30.0008) scale(3.70453 3.70453)">
<stop stop-color="#D0F2FF"/>
<stop offset="0.198" stop-color="#D5F3FF"/>
<stop offset="1" stop-color="#85BCF1"/>
</radialGradient>
<radialGradient id="paint12_radial_8006_1055" cx="0" cy="0" r="1" gradientUnits="userSpaceOnUse" gradientTransform="translate(13.4061 34.4625) rotate(156.037) scale(0.827887 1.20769)">
<stop stop-color="white"/>
<stop offset="1" stop-color="white" stop-opacity="0"/>
</radialGradient>
<radialGradient id="paint13_radial_8006_1055" cx="0" cy="0" r="1" gradientUnits="userSpaceOnUse" gradientTransform="translate(19.6495 34.7035) rotate(30.0008) scale(3.70438 3.70438)">
<stop stop-color="#D0F2FF"/>
<stop offset="0.198" stop-color="#D5F3FF"/>
<stop offset="1" stop-color="#85BCF1"/>
</radialGradient>
<radialGradient id="paint14_radial_8006_1055" cx="0" cy="0" r="1" gradientUnits="userSpaceOnUse" gradientTransform="translate(19.8459 34.4625) rotate(156.037) scale(0.827887 1.20769)">
<stop stop-color="white"/>
<stop offset="1" stop-color="white" stop-opacity="0"/>
</radialGradient>
<radialGradient id="paint15_radial_8006_1055" cx="0" cy="0" r="1" gradientUnits="userSpaceOnUse" gradientTransform="translate(26.0892 34.7034) rotate(30.0008) scale(3.70438 3.70438)">
<stop stop-color="#D0F2FF"/>
<stop offset="0.198" stop-color="#D5F3FF"/>
<stop offset="1" stop-color="#85BCF1"/>
</radialGradient>
<radialGradient id="paint16_radial_8006_1055" cx="0" cy="0" r="1" gradientUnits="userSpaceOnUse" gradientTransform="translate(26.2846 34.4625) rotate(156.037) scale(0.827888 1.20769)">
<stop stop-color="white"/>
<stop offset="1" stop-color="white" stop-opacity="0"/>
</radialGradient>
</defs>
</svg>
