<svg width="41" height="42" viewBox="0 0 41 42" fill="none" xmlns="http://www.w3.org/2000/svg">
<path d="M32.0616 11.3011C31.6273 5.22076 26.5893 0.399902 20.3787 0.399902C14.168 0.399902 9.0866 5.22076 8.69572 11.3011C4.09203 11.5183 0.400391 15.3402 0.400391 20.0308C0.400391 24.8517 4.30919 28.7605 9.13003 28.7605H31.6707C36.4916 28.7605 40.4004 24.8517 40.4004 20.0308C40.357 15.3402 36.7088 11.5183 32.0616 11.3011Z" fill="url(#paint0_radial_8006_1109)"/>
<path d="M20.3789 12.3868C17.0781 9.73754 15.8186 5.65502 17.5124 3.30973C19.2062 0.964448 23.2887 1.22504 26.5461 3.87434C29.8468 6.52364 31.1063 10.6062 29.4125 12.9515C27.7187 15.2967 23.6796 15.0361 20.3789 12.3868Z" fill="url(#paint1_radial_8006_1109)"/>
<path opacity="0.4" d="M32.1489 20.2481C29.543 18.1634 28.5441 14.9495 29.8904 13.1254C31.2368 11.3012 34.4073 11.475 37.0131 13.6031C39.619 15.6878 40.6179 18.9017 39.2715 20.7258C37.8817 22.5499 34.7113 22.3762 32.1489 20.2481Z" fill="url(#paint2_radial_8006_1109)"/>
<path opacity="0.2" d="M6.61143 20.552C4.70046 17.5552 2.48548 16.122 1.66029 17.3381C0.835102 18.5541 1.70372 21.9418 3.61469 24.8951C5.52566 27.8918 7.74064 29.3251 8.56583 28.109C9.39102 26.9364 8.5224 23.5487 6.61143 20.552Z" fill="url(#paint3_radial_8006_1109)"/>
<path d="M10.6062 34.1024C10.1284 34.971 9.04268 35.2316 8.17406 34.7539C7.30544 34.2761 7.04485 33.1903 7.52259 32.3217C8.00033 31.4531 11.0839 29.7593 11.0839 29.7593C11.0839 29.7593 11.0839 33.2772 10.6062 34.1024Z" fill="url(#paint4_radial_8006_1109)"/>
<path d="M7.56682 33.8419C7.30623 33.1035 7.43653 32.3652 7.9577 32.148C8.43544 31.9309 9.04347 32.3652 9.34749 33.0601C9.60808 33.7984 9.43435 34.5368 8.95661 34.7539C8.47887 34.9711 7.8274 34.5368 7.56682 33.8419Z" fill="url(#paint5_radial_8006_1109)"/>
<path d="M18.0769 34.1024C17.5992 34.971 16.5134 35.2316 15.6448 34.7539C14.7761 34.2761 14.5156 33.1903 14.9933 32.3217C15.471 31.4531 18.5546 29.7593 18.5546 29.7593C18.5546 29.7593 18.5546 33.2772 18.0769 34.1024Z" fill="url(#paint6_radial_8006_1109)"/>
<path d="M15.0365 33.8419C14.776 33.1035 14.9063 32.3652 15.4274 32.148C15.9052 31.9309 16.5132 32.3652 16.8172 33.0601C17.0778 33.7984 16.9041 34.5368 16.4263 34.7539C15.9486 34.9711 15.2971 34.5368 15.0365 33.8419Z" fill="url(#paint7_radial_8006_1109)"/>
<path d="M25.5466 34.1024C25.0689 34.971 23.9831 35.2316 23.1145 34.7539C22.2459 34.2761 21.9853 33.1903 22.463 32.3217C22.9408 31.4531 26.0244 29.7593 26.0244 29.7593C26.0244 29.7593 26.0244 33.2772 25.5466 34.1024Z" fill="url(#paint8_radial_8006_1109)"/>
<path d="M22.5063 33.8419C22.2457 33.1035 22.376 32.3652 22.8971 32.148C23.3749 31.9309 23.9829 32.3652 24.2869 33.0601C24.5475 33.7984 24.3738 34.5368 23.8961 34.7539C23.3749 34.9711 22.7669 34.5368 22.5063 33.8419Z" fill="url(#paint9_radial_8006_1109)"/>
<path d="M33.0173 34.1024C32.5396 34.971 31.4538 35.2316 30.5852 34.7539C29.7166 34.2761 29.456 33.1903 29.9337 32.3217C30.4115 31.4531 33.4951 29.7593 33.4951 29.7593C33.4951 29.7593 33.4951 33.2772 33.0173 34.1024Z" fill="url(#paint10_radial_8006_1109)"/>
<path d="M29.977 33.8419C29.7164 33.1035 29.8467 32.3652 30.3679 32.148C30.8456 31.9309 31.4536 32.3652 31.7576 33.0601C32.0182 33.7984 31.8445 34.5368 31.3668 34.7539C30.8456 34.9711 30.2376 34.5368 29.977 33.8419Z" fill="url(#paint11_radial_8006_1109)"/>
<path d="M14.3415 40.4C13.8638 41.2686 12.778 41.5292 11.9094 41.0515C11.0408 40.5737 10.7802 39.4445 11.2579 38.6193C11.7357 37.7507 14.8193 36.0569 14.8193 36.0569C14.8193 36.0569 14.8193 39.5314 14.3415 40.4Z" fill="url(#paint12_radial_8006_1109)"/>
<path d="M11.3022 40.096C11.0416 39.3577 11.1719 38.6194 11.693 38.4022C12.1708 38.185 12.7788 38.6193 13.0828 39.3142C13.3434 40.0526 13.1697 40.7909 12.692 41.0081C12.2142 41.2252 11.5628 40.8343 11.3022 40.096Z" fill="url(#paint13_radial_8006_1109)"/>
<path d="M21.8123 40.4C21.3345 41.2686 20.2487 41.5292 19.3801 41.0515C18.5115 40.5737 18.2509 39.4445 18.7286 38.6193C19.2064 37.7507 22.29 36.0569 22.29 36.0569C22.29 36.0569 22.29 39.5314 21.8123 40.4Z" fill="url(#paint14_radial_8006_1109)"/>
<path d="M18.7719 40.096C18.5113 39.3577 18.6416 38.6194 19.1628 38.4022C19.6405 38.185 20.2486 38.6193 20.5526 39.3142C20.8132 40.0526 20.6394 40.7909 20.1617 41.0081C19.6839 41.2252 19.0325 40.8343 18.7719 40.096Z" fill="url(#paint15_radial_8006_1109)"/>
<path d="M29.282 40.4C28.8042 41.2686 27.7185 41.5292 26.8498 41.0515C25.9812 40.5737 25.7206 39.4445 26.1984 38.6193C26.6761 37.7507 29.7597 36.0569 29.7597 36.0569C29.7597 36.0569 29.7597 39.5314 29.282 40.4Z" fill="url(#paint16_radial_8006_1109)"/>
<path d="M26.2416 40.096C25.981 39.3577 26.1113 38.6194 26.6325 38.4022C27.1102 38.185 27.7183 38.6193 28.0223 39.3142C28.2829 40.0526 28.1092 40.7909 27.6314 41.0081C27.1102 41.2252 26.5022 40.8343 26.2416 40.096Z" fill="url(#paint17_radial_8006_1109)"/>
<defs>
<radialGradient id="paint0_radial_8006_1109" cx="0" cy="0" r="1" gradientUnits="userSpaceOnUse" gradientTransform="translate(25.4129 6.34362) rotate(180) scale(30.5128 22.2897)">
<stop stop-color="white"/>
<stop offset="0.198" stop-color="#D5F3FF"/>
<stop offset="1" stop-color="#85BCF1"/>
</radialGradient>
<radialGradient id="paint1_radial_8006_1109" cx="0" cy="0" r="1" gradientUnits="userSpaceOnUse" gradientTransform="translate(23.4587 8.12188) rotate(126.034) scale(5.25145 7.66087)">
<stop stop-color="white"/>
<stop offset="1" stop-color="white" stop-opacity="0"/>
</radialGradient>
<radialGradient id="paint2_radial_8006_1109" cx="0" cy="0" r="1" gradientUnits="userSpaceOnUse" gradientTransform="translate(34.5591 16.9208) rotate(126.034) scale(4.12725 6.02087)">
<stop stop-color="white"/>
<stop offset="1" stop-color="white" stop-opacity="0"/>
</radialGradient>
<radialGradient id="paint3_radial_8006_1109" cx="0" cy="0" r="1" gradientUnits="userSpaceOnUse" gradientTransform="translate(5.11719 22.7366) rotate(-25.7093) scale(2.11547 6.15831)">
<stop stop-color="white"/>
<stop offset="1" stop-color="white" stop-opacity="0"/>
</radialGradient>
<radialGradient id="paint4_radial_8006_1109" cx="0" cy="0" r="1" gradientUnits="userSpaceOnUse" gradientTransform="translate(8.21816 33.715) rotate(30.0008) scale(4.29563 4.29564)">
<stop stop-color="#D0F2FF"/>
<stop offset="0.198" stop-color="#D5F3FF"/>
<stop offset="1" stop-color="#85BCF1"/>
</radialGradient>
<radialGradient id="paint5_radial_8006_1109" cx="0" cy="0" r="1" gradientUnits="userSpaceOnUse" gradientTransform="translate(8.44582 33.435) rotate(156.037) scale(0.959839 1.40018)">
<stop stop-color="white"/>
<stop offset="1" stop-color="white" stop-opacity="0"/>
</radialGradient>
<radialGradient id="paint6_radial_8006_1109" cx="0" cy="0" r="1" gradientUnits="userSpaceOnUse" gradientTransform="translate(15.6857 33.7151) rotate(30.0008) scale(4.29563 4.29564)">
<stop stop-color="#D0F2FF"/>
<stop offset="0.198" stop-color="#D5F3FF"/>
<stop offset="1" stop-color="#85BCF1"/>
</radialGradient>
<radialGradient id="paint7_radial_8006_1109" cx="0" cy="0" r="1" gradientUnits="userSpaceOnUse" gradientTransform="translate(15.9125 33.435) rotate(156.037) scale(0.95984 1.40018)">
<stop stop-color="white"/>
<stop offset="1" stop-color="white" stop-opacity="0"/>
</radialGradient>
<radialGradient id="paint8_radial_8006_1109" cx="0" cy="0" r="1" gradientUnits="userSpaceOnUse" gradientTransform="translate(23.1524 33.715) rotate(30.0008) scale(4.2958 4.29581)">
<stop stop-color="#D0F2FF"/>
<stop offset="0.198" stop-color="#D5F3FF"/>
<stop offset="1" stop-color="#85BCF1"/>
</radialGradient>
<radialGradient id="paint9_radial_8006_1109" cx="0" cy="0" r="1" gradientUnits="userSpaceOnUse" gradientTransform="translate(23.3791 33.435) rotate(156.037) scale(0.959838 1.40018)">
<stop stop-color="white"/>
<stop offset="1" stop-color="white" stop-opacity="0"/>
</radialGradient>
<radialGradient id="paint10_radial_8006_1109" cx="0" cy="0" r="1" gradientUnits="userSpaceOnUse" gradientTransform="translate(30.62 33.7151) rotate(30.0008) scale(4.29563 4.29564)">
<stop stop-color="#D0F2FF"/>
<stop offset="0.198" stop-color="#D5F3FF"/>
<stop offset="1" stop-color="#85BCF1"/>
</radialGradient>
<radialGradient id="paint11_radial_8006_1109" cx="0" cy="0" r="1" gradientUnits="userSpaceOnUse" gradientTransform="translate(30.8467 33.435) rotate(156.037) scale(0.959838 1.40018)">
<stop stop-color="white"/>
<stop offset="1" stop-color="white" stop-opacity="0"/>
</radialGradient>
<radialGradient id="paint12_radial_8006_1109" cx="0" cy="0" r="1" gradientUnits="userSpaceOnUse" gradientTransform="translate(11.952 39.9889) rotate(30.0008) scale(4.29563 4.29564)">
<stop stop-color="#D0F2FF"/>
<stop offset="0.198" stop-color="#D5F3FF"/>
<stop offset="1" stop-color="#85BCF1"/>
</radialGradient>
<radialGradient id="paint13_radial_8006_1109" cx="0" cy="0" r="1" gradientUnits="userSpaceOnUse" gradientTransform="translate(12.1795 39.7089) rotate(156.037) scale(0.959838 1.40018)">
<stop stop-color="white"/>
<stop offset="1" stop-color="white" stop-opacity="0"/>
</radialGradient>
<radialGradient id="paint14_radial_8006_1109" cx="0" cy="0" r="1" gradientUnits="userSpaceOnUse" gradientTransform="translate(19.4196 39.9889) rotate(30.0008) scale(4.29568 4.29568)">
<stop stop-color="#D0F2FF"/>
<stop offset="0.198" stop-color="#D5F3FF"/>
<stop offset="1" stop-color="#85BCF1"/>
</radialGradient>
<radialGradient id="paint15_radial_8006_1109" cx="0" cy="0" r="1" gradientUnits="userSpaceOnUse" gradientTransform="translate(19.6464 39.7089) rotate(156.037) scale(0.959902 1.40027)">
<stop stop-color="white"/>
<stop offset="1" stop-color="white" stop-opacity="0"/>
</radialGradient>
<radialGradient id="paint16_radial_8006_1109" cx="0" cy="0" r="1" gradientUnits="userSpaceOnUse" gradientTransform="translate(26.8863 39.9889) rotate(30.0008) scale(4.29563 4.29564)">
<stop stop-color="#D0F2FF"/>
<stop offset="0.198" stop-color="#D5F3FF"/>
<stop offset="1" stop-color="#85BCF1"/>
</radialGradient>
<radialGradient id="paint17_radial_8006_1109" cx="0" cy="0" r="1" gradientUnits="userSpaceOnUse" gradientTransform="translate(27.1129 39.7089) rotate(156.037) scale(0.959901 1.40027)">
<stop stop-color="white"/>
<stop offset="1" stop-color="white" stop-opacity="0"/>
</radialGradient>
</defs>
</svg>
