<svg width="41" height="30" viewBox="0 0 41 30" fill="none" xmlns="http://www.w3.org/2000/svg">
<path d="M37.7698 18.0907L35.3397 18.245L34.8768 20.6751L32.4853 19.9808L31.251 22.1023L29.2452 20.6365L27.3551 22.1794L25.9665 20.1351L23.6521 20.9451L23.0735 18.5536L20.6049 18.515L20.8749 16.0849L18.5991 15.1977L19.6791 12.9991L17.7891 11.379L19.602 9.68181L18.3677 7.52172L20.6434 6.5574L20.2577 4.1273L22.6878 3.97301L23.1507 1.54292L25.5036 2.23723L26.7765 0.115719L28.7823 1.58149L30.6724 0L32.0224 2.04437L34.3754 1.27291L34.954 3.62586L37.4226 3.66443L37.1526 6.1331L39.4284 6.9817L38.3484 9.21893L40.1999 10.8004L38.4255 12.4976L39.6213 14.6577L37.384 15.6606L37.7698 18.0907Z" fill="url(#paint0_linear_8006_902)"/>
<path d="M29.0139 19.4023C33.594 19.4023 37.307 15.6893 37.307 11.1091C37.307 6.5289 33.594 2.81592 29.0139 2.81592C24.4337 2.81592 20.7207 6.5289 20.7207 11.1091C20.7207 15.6893 24.4337 19.4023 29.0139 19.4023Z" fill="url(#paint1_radial_8006_902)"/>
<path d="M30.2868 10.2604C28.1653 8.56319 27.3553 5.94023 28.4353 4.43589C29.5154 2.93154 32.1383 3.08584 34.2598 4.82162C36.3813 6.51883 37.1914 9.14178 36.1113 10.6461C34.9927 12.1119 32.3698 11.9576 30.2868 10.2604Z" fill="url(#paint2_radial_8006_902)"/>
<path opacity="0.4" d="M21.685 12.9218C21.955 11.9961 23.3822 12.3818 24.8479 13.7704C26.3137 15.1591 27.278 17.0106 27.008 17.9363C26.738 18.8621 25.3108 18.4763 23.845 17.0877C22.3793 15.7377 21.4149 13.8476 21.685 12.9218Z" fill="url(#paint3_radial_8006_902)"/>
<path d="M28.3198 14.4648C27.934 9.06455 23.421 4.78296 17.9437 4.78296C12.4278 4.78296 7.91476 9.06455 7.5676 14.4648C3.47889 14.6576 0.200195 18.052 0.200195 22.2179C0.200195 26.4995 3.67175 29.9711 7.95333 29.9711H27.934C32.2156 29.9711 35.6872 26.4995 35.6872 22.2179C35.6872 18.052 32.4085 14.6576 28.3198 14.4648Z" fill="url(#paint4_radial_8006_902)"/>
<path d="M28.3198 14.4648C27.934 9.06455 23.421 4.78296 17.9437 4.78296C12.4278 4.78296 7.91476 9.06455 7.5676 14.4648C3.47889 14.6576 0.200195 18.052 0.200195 22.2179C0.200195 26.4995 3.67175 29.9711 7.95333 29.9711H27.934C32.2156 29.9711 35.6872 26.4995 35.6872 22.2179C35.6872 18.052 32.4085 14.6576 28.3198 14.4648Z" fill="url(#paint5_radial_8006_902)"/>
<path d="M17.9439 15.4292C15.0123 13.0762 13.8937 9.45037 15.3981 7.36743C16.9024 5.28449 20.5282 5.51593 23.4212 7.86888C26.3527 10.2218 27.4713 13.8477 25.967 15.9306C24.4627 18.0136 20.8368 17.7821 17.9439 15.4292Z" fill="url(#paint6_radial_8006_902)"/>
<path opacity="0.4" d="M28.3586 22.4495C26.0442 20.598 25.157 17.7436 26.3528 16.1236C27.5485 14.5035 30.3644 14.6578 32.6787 16.5479C34.9931 18.3994 35.8803 21.2538 34.6845 22.8738C33.4888 24.4939 30.673 24.301 28.3586 22.4495Z" fill="url(#paint7_radial_8006_902)"/>
<path opacity="0.2" d="M5.71609 22.6809C4.01888 20.0194 2.05167 18.7465 1.31879 19.8265C0.585905 20.9066 1.35736 23.9153 3.05457 26.5382C4.75177 29.1997 6.71898 30.4727 7.45186 29.3926C8.18475 28.3511 7.41329 25.3425 5.71609 22.6809Z" fill="url(#paint8_radial_8006_902)"/>
<defs>
<linearGradient id="paint0_linear_8006_902" x1="39.2254" y1="-0.314331" x2="19.5339" y2="21.6902" gradientUnits="userSpaceOnUse">
<stop stop-color="#FFBA24"/>
<stop offset="1" stop-color="#FF5500"/>
</linearGradient>
<radialGradient id="paint1_radial_8006_902" cx="0" cy="0" r="1" gradientUnits="userSpaceOnUse" gradientTransform="translate(30.9079 5.89813) rotate(180) scale(15.7534 15.7534)">
<stop stop-color="#FFF4C3"/>
<stop offset="0.1559" stop-color="#FFE036"/>
<stop offset="1" stop-color="#FA761C"/>
</radialGradient>
<radialGradient id="paint2_radial_8006_902" cx="0" cy="0" r="1" gradientUnits="userSpaceOnUse" gradientTransform="translate(32.2589 7.5192) rotate(126.034) scale(3.37344 4.9212)">
<stop stop-color="white"/>
<stop offset="1" stop-color="white" stop-opacity="0"/>
</radialGradient>
<radialGradient id="paint3_radial_8006_902" cx="0" cy="0" r="1" gradientUnits="userSpaceOnUse" gradientTransform="translate(24.3493 15.4472) rotate(-136.79) scale(3.66834 1.55809)">
<stop stop-color="white"/>
<stop offset="1" stop-color="white" stop-opacity="0"/>
</radialGradient>
<radialGradient id="paint4_radial_8006_902" cx="0" cy="0" r="1" gradientUnits="userSpaceOnUse" gradientTransform="translate(22.4098 10.0746) rotate(180) scale(27.1003 19.7968)">
<stop stop-color="white"/>
<stop offset="0.198" stop-color="#D5F3FF"/>
<stop offset="1" stop-color="#85BCF1"/>
</radialGradient>
<radialGradient id="paint5_radial_8006_902" cx="0" cy="0" r="1" gradientUnits="userSpaceOnUse" gradientTransform="translate(26.2499 12.3474) scale(23.0383 23.0384)">
<stop stop-color="#FFE036"/>
<stop offset="0.00517127" stop-color="#FFDF36" stop-opacity="0.9933"/>
<stop offset="0.1623" stop-color="#FDB92C" stop-opacity="0.789"/>
<stop offset="0.319" stop-color="#FC9C25" stop-opacity="0.5851"/>
<stop offset="0.4735" stop-color="#FB8720" stop-opacity="0.3841"/>
<stop offset="0.6247" stop-color="#FA7A1D" stop-opacity="0.1875"/>
<stop offset="0.7688" stop-color="#FA761C" stop-opacity="0"/>
</radialGradient>
<radialGradient id="paint6_radial_8006_902" cx="0" cy="0" r="1" gradientUnits="userSpaceOnUse" gradientTransform="translate(20.6743 11.6542) rotate(126.034) scale(4.66419 6.80416)">
<stop stop-color="white"/>
<stop offset="1" stop-color="white" stop-opacity="0"/>
</radialGradient>
<radialGradient id="paint7_radial_8006_902" cx="0" cy="0" r="1" gradientUnits="userSpaceOnUse" gradientTransform="translate(30.5326 19.4688) rotate(126.034) scale(3.66552 5.34729)">
<stop stop-color="white"/>
<stop offset="1" stop-color="white" stop-opacity="0"/>
</radialGradient>
<radialGradient id="paint8_radial_8006_902" cx="0" cy="0" r="1" gradientUnits="userSpaceOnUse" gradientTransform="translate(4.38095 24.6327) rotate(-25.7093) scale(1.87891 5.46966)">
<stop stop-color="white"/>
<stop offset="1" stop-color="white" stop-opacity="0"/>
</radialGradient>
</defs>
</svg>
