<svg width="41" height="46" viewBox="0 0 41 46" fill="none" xmlns="http://www.w3.org/2000/svg">
<path d="M39.1331 31.48L34.9755 29.0858L36.2786 28.3491C37.3336 27.7352 37.6438 26.4459 37.0854 25.4637C36.4648 24.4814 35.1617 24.1131 34.1688 24.6656L30.7559 26.6301L27.5911 24.8498C27.7152 24.2972 27.7773 23.6833 27.7773 23.1308C27.7773 22.5169 27.7152 21.9644 27.5911 21.4118L30.7559 19.6315L34.1688 21.596C34.4791 21.7802 34.8514 21.903 35.2237 21.903C35.9684 21.903 36.713 21.5346 37.0854 20.8593C37.7059 19.877 37.3336 18.5264 36.2786 17.9739L34.9755 17.2372L39.1331 14.8429C40.126 14.229 40.4983 12.9398 39.9398 11.9575C39.3193 10.9139 38.0162 10.6069 37.0233 11.1594L32.8657 13.5537V12.0803C32.8657 10.9139 31.9349 9.993 30.7559 9.993C29.5769 9.993 28.6461 10.9139 28.6461 12.0803V16.0094L25.4813 17.7897C24.6126 16.9916 23.5577 16.3777 22.4407 16.0094V12.3873L25.8536 10.4227C26.9086 9.80883 27.2188 8.5196 26.6603 7.53734C26.0398 6.49368 24.7367 6.18673 23.7438 6.73925L22.4407 7.47595V2.68741C22.4407 1.52097 21.5099 0.600098 20.3309 0.600098C19.1519 0.600098 18.221 1.52097 18.221 2.68741V7.47595L16.9179 6.73925C15.9251 6.12534 14.5599 6.49368 14.0014 7.53734C13.3809 8.5196 13.7532 9.87022 14.8081 10.4227L18.221 12.3873V16.0094C17.042 16.3777 16.0492 16.9303 15.1804 17.7897L12.0157 15.948V12.0189C12.0157 10.8525 11.0849 9.93161 9.90587 9.93161C8.72685 9.93161 7.79605 10.8525 7.79605 12.0189V13.4923L3.63845 11.098C2.58354 10.4841 1.28043 10.8525 0.721946 11.8961C0.10141 12.8784 0.473724 14.229 1.52864 14.7815L5.68623 17.1758L4.3831 17.9125C3.39025 18.5264 3.01793 19.8156 3.57641 20.7979C3.94874 21.4732 4.69338 21.8416 5.43802 21.8416C5.81034 21.8416 6.18265 21.7802 6.49292 21.5346L9.90587 19.5701L13.0706 21.3504C12.9465 21.903 12.8224 22.5169 12.8224 23.0694C12.8224 23.6833 12.8844 24.2358 13.0706 24.7884L9.65766 26.6301L6.24471 24.6656C5.1898 24.0517 3.88667 24.42 3.32819 25.4637C2.70765 26.4459 3.07998 27.7965 4.13489 28.3491L5.43802 29.0858L1.28042 31.48C0.225514 32.094 -0.0847465 33.3832 0.473736 34.3655C0.846057 35.0408 1.5907 35.4091 2.33534 35.4091C2.70766 35.4091 3.07997 35.3477 3.39024 35.1021L7.54784 32.7079V34.1813C7.54784 35.3477 8.47864 36.2686 9.65766 36.2686C10.8367 36.2686 11.8295 35.3477 11.8295 34.1813V30.2522L14.9943 28.4105C15.863 29.2086 16.9179 29.8225 18.0349 30.1908V33.8129L14.6219 35.7774C13.567 36.3914 13.2568 37.6806 13.8153 38.6629C14.4358 39.7065 15.7389 40.0135 16.7318 39.4609L18.0349 38.7243V43.5128C18.0349 44.6792 18.9657 45.6001 20.1447 45.6001C21.3237 45.6001 22.2545 44.6792 22.2545 43.5128V38.7243L23.5577 39.4609C23.8679 39.6451 24.2403 39.7679 24.6126 39.7679C25.3572 39.7679 26.1019 39.3996 26.4742 38.7243C27.0947 37.742 26.7224 36.3914 25.6675 35.8388L22.2545 33.8743V30.2522C23.4335 29.8839 24.4264 29.3313 25.2952 28.4719L28.4599 30.2522V34.1813C28.4599 35.3477 29.3907 36.2686 30.5697 36.2686C31.7487 36.2686 32.6795 35.3477 32.6795 34.1813V32.7693L36.8371 35.1635C37.1474 35.3477 37.5197 35.4705 37.892 35.4705C38.6367 35.4705 39.3813 35.1022 39.7536 34.4268C40.4983 33.3832 40.126 32.094 39.1331 31.48ZM20.1447 26.3232C18.3452 26.3232 16.8559 24.8498 16.8559 23.0694C16.8559 21.2891 18.3452 19.8156 20.1447 19.8156C21.9443 19.8156 23.4336 21.2891 23.4336 23.0694C23.4336 24.9112 21.9443 26.3232 20.1447 26.3232Z" fill="url(#paint0_radial_8006_1625)"/>
<defs>
<radialGradient id="paint0_radial_8006_1625" cx="0" cy="0" r="1" gradientUnits="userSpaceOnUse" gradientTransform="translate(33.2337 14.1019) scale(38.8794 38.4646)">
<stop stop-color="#28CBE9"/>
<stop offset="1" stop-color="#0A4FBB"/>
</radialGradient>
</defs>
</svg>
