<svg width="41" height="23" viewBox="0 0 41 23" fill="none" xmlns="http://www.w3.org/2000/svg">
<path d="M16.166 5.67587C15.9682 2.74111 13.4951 0.399902 10.4944 0.399902C7.49366 0.399902 5.05354 2.74111 4.82272 5.67587C2.58044 5.77479 0.799805 7.62138 0.799805 9.89664C0.799805 12.2378 2.67936 14.1174 5.02056 14.1174H15.9022C18.2434 14.1174 20.123 12.2378 20.123 9.89664C20.1889 7.62138 18.4083 5.77479 16.166 5.67587Z" fill="url(#paint0_radial_8006_1081)"/>
<path d="M10.4946 6.20349C8.91179 4.91747 8.28528 2.93899 9.10964 1.81784C9.93401 0.696703 11.8795 0.795627 13.4953 2.11462C15.0781 3.40063 15.7046 5.37912 14.8802 6.50026C14.0558 7.62141 12.1103 7.48951 10.4946 6.20349Z" fill="url(#paint1_radial_8006_1081)"/>
<path opacity="0.4" d="M16.1992 9.99549C14.9461 8.97327 14.4515 7.42346 15.111 6.53314C15.7705 5.64282 17.2873 5.74174 18.5403 6.76396C19.7934 7.78618 20.288 9.336 19.6285 10.2263C18.969 11.1166 17.4522 11.0177 16.1992 9.99549Z" fill="url(#paint2_radial_8006_1081)"/>
<path opacity="0.2" d="M3.86604 10.1605C2.94275 8.70957 1.88757 8.0171 1.4589 8.61065C1.0632 9.20419 1.49187 10.82 2.41516 12.2708C3.33845 13.7217 4.39365 14.4142 4.82232 13.8207C5.21801 13.2271 4.78933 11.5784 3.86604 10.1605Z" fill="url(#paint3_radial_8006_1081)"/>
<path d="M36.8408 5.67587C36.643 2.74111 34.1699 0.399902 31.1692 0.399902C28.1685 0.399902 25.7283 2.74111 25.4975 5.67587C23.2552 5.77479 21.4746 7.62138 21.4746 9.89664C21.4746 12.2378 23.3542 14.1174 25.6954 14.1174H36.577C38.9182 14.1174 40.7978 12.2378 40.7978 9.89664C40.8637 7.62138 39.0831 5.77479 36.8408 5.67587Z" fill="url(#paint4_radial_8006_1081)"/>
<path d="M31.2026 6.20349C29.6198 4.91747 28.9933 2.93899 29.8176 1.81784C30.642 0.696703 32.5875 0.795627 34.2033 2.11462C35.7861 3.40063 36.4126 5.37912 35.5882 6.50026C34.7309 7.62141 32.7854 7.48951 31.2026 6.20349Z" fill="url(#paint5_radial_8006_1081)"/>
<path opacity="0.4" d="M36.8739 9.99549C35.6209 8.97327 35.1263 7.42346 35.7858 6.53314C36.4453 5.64282 37.9621 5.74174 39.2152 6.76396C40.4682 7.78618 40.9628 9.336 40.3033 10.2263C39.6768 11.1166 38.127 11.0177 36.8739 9.99549Z" fill="url(#paint6_radial_8006_1081)"/>
<path opacity="0.2" d="M24.5418 10.1605C23.6185 8.70957 22.5633 8.0171 22.1347 8.61065C21.739 9.20419 22.1677 10.82 23.0909 12.2708C24.0142 13.7217 25.0694 14.4142 25.4981 13.8207C25.8938 13.2271 25.4651 11.5784 24.5418 10.1605Z" fill="url(#paint7_radial_8006_1081)"/>
<path d="M27.6746 12.007C27.4438 8.44568 24.476 5.64282 20.8488 5.64282C17.2216 5.64282 14.2539 8.44568 14.0231 12.007C11.3191 12.1389 9.17578 14.3811 9.17578 17.118C9.17578 19.9209 11.451 22.2291 14.2869 22.2291H27.4437C30.2466 22.2291 32.5548 19.9539 32.5548 17.118C32.5218 14.3811 30.3785 12.1718 27.6746 12.007Z" fill="url(#paint8_radial_8006_1081)"/>
<path d="M20.8486 12.6665C18.9361 11.1166 18.1777 8.74247 19.1669 7.35752C20.1562 5.97258 22.5303 6.13746 24.4429 7.68727C26.3554 9.23709 27.1138 11.6113 26.1246 12.9962C25.1353 14.3812 22.7611 14.2163 20.8486 12.6665Z" fill="url(#paint9_radial_8006_1081)"/>
<path opacity="0.4" d="M27.7069 17.2501C26.19 16.03 25.5965 14.1505 26.3879 13.0953C27.1793 12.0071 29.0259 12.139 30.5427 13.3591C32.0595 14.5791 32.6531 16.4587 31.8617 17.5139C31.0703 18.602 29.2237 18.4701 27.7069 17.2501Z" fill="url(#paint10_radial_8006_1081)"/>
<path opacity="0.2" d="M12.8359 17.448C11.7148 15.7003 10.4288 14.8759 9.93413 15.5684C9.43951 16.2609 9.96711 18.2394 11.0882 19.987C12.2094 21.7347 13.4954 22.5591 13.99 21.8666C14.4517 21.1411 13.9241 19.1627 12.8359 17.448Z" fill="url(#paint11_radial_8006_1081)"/>
<defs>
<radialGradient id="paint0_radial_8006_1081" cx="0" cy="0" r="1" gradientUnits="userSpaceOnUse" gradientTransform="translate(12.946 3.28319) rotate(180) scale(14.7486 10.7739)">
<stop stop-color="white"/>
<stop offset="0.198" stop-color="#B4ECFF"/>
<stop offset="1" stop-color="#69ACF1"/>
</radialGradient>
<radialGradient id="paint1_radial_8006_1081" cx="0" cy="0" r="1" gradientUnits="userSpaceOnUse" gradientTransform="translate(12.0018 4.14296) rotate(126.034) scale(2.53838 3.70301)">
<stop stop-color="white"/>
<stop offset="1" stop-color="white" stop-opacity="0"/>
</radialGradient>
<radialGradient id="paint2_radial_8006_1081" cx="0" cy="0" r="1" gradientUnits="userSpaceOnUse" gradientTransform="translate(17.3668 8.39593) rotate(126.034) scale(1.99502 2.91035)">
<stop stop-color="white"/>
<stop offset="1" stop-color="white" stop-opacity="0"/>
</radialGradient>
<radialGradient id="paint3_radial_8006_1081" cx="0" cy="0" r="1" gradientUnits="userSpaceOnUse" gradientTransform="translate(3.13484 11.2057) rotate(-25.7092) scale(1.02257 2.97679)">
<stop stop-color="white"/>
<stop offset="1" stop-color="white" stop-opacity="0"/>
</radialGradient>
<radialGradient id="paint4_radial_8006_1081" cx="0" cy="0" r="1" gradientUnits="userSpaceOnUse" gradientTransform="translate(33.6262 3.28319) rotate(180) scale(14.7486 10.7739)">
<stop stop-color="white"/>
<stop offset="0.198" stop-color="#B4ECFF"/>
<stop offset="1" stop-color="#69ACF1"/>
</radialGradient>
<radialGradient id="paint5_radial_8006_1081" cx="0" cy="0" r="1" gradientUnits="userSpaceOnUse" gradientTransform="translate(32.6823 4.1429) rotate(126.034) scale(2.53833 3.70294)">
<stop stop-color="white"/>
<stop offset="1" stop-color="white" stop-opacity="0"/>
</radialGradient>
<radialGradient id="paint6_radial_8006_1081" cx="0" cy="0" r="1" gradientUnits="userSpaceOnUse" gradientTransform="translate(38.0471 8.39592) rotate(126.034) scale(1.99502 2.91035)">
<stop stop-color="white"/>
<stop offset="1" stop-color="white" stop-opacity="0"/>
</radialGradient>
<radialGradient id="paint7_radial_8006_1081" cx="0" cy="0" r="1" gradientUnits="userSpaceOnUse" gradientTransform="translate(23.8157 11.2054) rotate(-25.7093) scale(1.02257 2.97679)">
<stop stop-color="white"/>
<stop offset="1" stop-color="white" stop-opacity="0"/>
</radialGradient>
<radialGradient id="paint8_radial_8006_1081" cx="0" cy="0" r="1" gradientUnits="userSpaceOnUse" gradientTransform="translate(23.7931 9.13856) rotate(180) scale(17.8123 13.0119)">
<stop stop-color="white"/>
<stop offset="0.198" stop-color="#D5F3FF"/>
<stop offset="1" stop-color="#85BCF1"/>
</radialGradient>
<radialGradient id="paint9_radial_8006_1081" cx="0" cy="0" r="1" gradientUnits="userSpaceOnUse" gradientTransform="translate(22.6522 10.1773) rotate(126.034) scale(3.06561 4.47213)">
<stop stop-color="white"/>
<stop offset="1" stop-color="white" stop-opacity="0"/>
</radialGradient>
<radialGradient id="paint10_radial_8006_1081" cx="0" cy="0" r="1" gradientUnits="userSpaceOnUse" gradientTransform="translate(29.1318 15.3136) rotate(126.034) scale(2.40926 3.51464)">
<stop stop-color="white"/>
<stop offset="1" stop-color="white" stop-opacity="0"/>
</radialGradient>
<radialGradient id="paint11_radial_8006_1081" cx="0" cy="0" r="1" gradientUnits="userSpaceOnUse" gradientTransform="translate(11.9445 18.7074) rotate(-25.7093) scale(1.23499 3.59517)">
<stop stop-color="white"/>
<stop offset="1" stop-color="white" stop-opacity="0"/>
</radialGradient>
</defs>
</svg>
